# xmcd
#
# Track frame offsets: 
#        150
#        21169
#        35640
#        49320
#        78268
#        89593
#        106725
#        119409
#        130779
#        145344
#        161447
#        180115
#        194053
#        206757
#        222460
#        236774
#        252570
#
# Disc length: 3593 seconds
#
# Revision: 0
# Processed by: cddbd v1.5.2PL0 Copyright (c) Steve Scherf et al.
# Submitted via: ExactAudioCopy v0.99pb5
#
DISCID=f90e0711
DTITLE=JOÃO VIOLA E MARCOS VINÍCIUS - BRASIL CAIPIRA
DYEAR=2011
DGENRE=SERTANEJO
TTITLE0=BRASIL CAIPIRA
TTITLE1=PAIXÃO GOIANA
TTITLE2=CAVALO ENXUTO
TTITLE3=POUTPOURRI
TTITLE4=JUSTIÇA DO CÉU
TTITLE5=CANGA DO TEMPO
TTITLE6=CHORA VIOLA
TTITLE7=ARREPENDIDA
TTITLE8=PAIXÃO MINEIRA
TTITLE9=PRINCESA DO VALE
TTITLE10=MINEIRO DO PÉ-QUENTE
TTITLE11=CABOCLINHO VALENTE
TTITLE12=VENENO LENTO
TTITLE13=OBRA DO CRIADOR
TTITLE14=VELHO AMOR
TTITLE15=PESCARIA NO FORRÓ
TTITLE16=COFRINHO DA MARISTELA
EXTD=
EXTT0=
EXTT1=
EXTT2=
EXTT3=
EXTT4=
EXTT5=
EXTT6=
EXTT7=
EXTT8=
EXTT9=
EXTT10=
EXTT11=
EXTT12=
EXTT13=
EXTT14=
EXTT15=
EXTT16=
PLAYORDER=
